<svg width="33" height="32" viewBox="0 0 33 32" fill="none" xmlns="http://www.w3.org/2000/svg">
<path d="M29.0714 0H3.92857C3.01926 0 2.14719 0.361224 1.50421 1.00421C0.861223 1.64719 0.5 2.51926 0.5 3.42857L0.5 28.5714C0.5 29.4807 0.861223 30.3528 1.50421 30.9958C2.14719 31.6388 3.01926 32 3.92857 32H13.7321V21.1207H9.23214V16H13.7321V12.0971C13.7321 7.65786 16.375 5.20571 20.4229 5.20571C22.3614 5.20571 24.3886 5.55143 24.3886 5.55143V9.90857H22.155C19.9543 9.90857 19.2679 11.2743 19.2679 12.675V16H24.1807L23.395 21.1207H19.2679V32H29.0714C29.9807 32 30.8528 31.6388 31.4958 30.9958C32.1388 30.3528 32.5 29.4807 32.5 28.5714V3.42857C32.5 2.51926 32.1388 1.64719 31.4958 1.00421C30.8528 0.361224 29.9807 0 29.0714 0Z" fill="#FCFCFC"/>
</svg>
